<?xml version="1.0" encoding="UTF-8" standalone="no"?>
<!DOCTYPE svg PUBLIC "-//W3C//DTD SVG 1.1//EN" "http://www.w3.org/Graphics/SVG/1.1/DTD/svg11.dtd">
<svg version="1.1" xmlns="http://www.w3.org/2000/svg" xmlns:xlink="http://www.w3.org/1999/xlink" preserveAspectRatio="xMidYMid meet" viewBox="0 0 640 640" width="640" height="640"><defs><path d="M148 -156.13L332.79 -269.96L415.5 -323.36" id="e34Da19gs"></path><path d="M569.25 -219.39L395.5 -317.4" id="a5lK34Ihsw"></path><path d="M252 -129.02L-23 -129.02L114.5 -219.39L252 -129.02Z" id="b6C6969T2n"></path><path d="M700 -246.33L700 -168.38L636.5 -129.4L573 -168.38L573 -246.33L636.5 -285.31L700 -246.33Z" id="c22BDkEgVa"></path><path d="M673 -129.02L148 -129.02L410.5 -293.82L673 -129.02Z" id="b4v1A1vj0"></path><path d="M538.92 303.98C538.92 367.21 489.62 418.54 428.89 418.54C368.17 418.54 318.87 367.21 318.87 303.98C318.87 240.76 368.17 189.43 428.89 189.43C489.62 189.43 538.92 240.76 538.92 303.98Z" id="bKW8HsgxW"></path><path d="M376.12 348.5C376.12 389.67 338.54 423.09 292.26 423.09C245.97 423.09 208.39 389.67 208.39 348.5C208.39 307.33 245.97 273.91 292.26 273.91C338.54 273.91 376.12 307.33 376.12 348.5Z" id="b4jTv7tq0x"></path><path d="M630.5 361.33C630.5 400.95 600.16 433.12 562.79 433.12C525.42 433.12 495.08 400.95 495.08 361.33C495.08 321.71 525.42 289.55 562.79 289.55C600.16 289.55 630.5 321.71 630.5 361.33Z" id="a2QDoJ0GzP"></path><path d="M121.75 380.63L630.5 380.63L630.5 440.75L121.75 440.75L121.75 380.63Z" id="i3sGNm613j"></path><path d="M264.83 384.72C264.83 414.91 234.49 439.42 197.12 439.42C159.75 439.42 129.41 414.91 129.41 384.72C129.41 354.53 159.75 330.02 197.12 330.02C234.49 330.02 264.83 354.53 264.83 384.72Z" id="c2mtBECS3"></path><path d="M521.6 330.02C521.6 381.39 481.51 423.09 432.13 423.09C382.74 423.09 342.65 381.39 342.65 330.02C342.65 278.65 382.74 236.94 432.13 236.94C481.51 236.94 521.6 278.65 521.6 330.02Z" id="a1GZ7xv8cz"></path><path d="M396.02 367.75C396.02 401 361.45 428 318.87 428C276.28 428 241.71 401 241.71 367.75C241.71 334.49 276.28 307.49 318.87 307.49C361.45 307.49 396.02 334.49 396.02 367.75Z" id="ebISb8foy"></path><path d="M630.5 383.83C630.5 412.59 600.16 435.94 562.79 435.94C525.42 435.94 495.08 412.59 495.08 383.83C495.08 355.06 525.42 331.71 562.79 331.71C600.16 331.71 630.5 355.06 630.5 383.83Z" id="amo4o9c5d"></path><path d="M212.74 383.83L630.5 383.83L630.5 440.75L212.74 440.75L212.74 383.83Z" id="gS3VYDNr4"></path><path d="M164.97 411.34C164.97 427.93 146.95 441.4 124.74 441.4C102.54 441.4 84.51 427.93 84.51 411.34C84.51 394.75 102.54 381.28 124.74 381.28C146.95 381.28 164.97 394.75 164.97 411.34Z" id="c32R8er6E"></path><path d="M287.18 401.04C287.18 422.96 256.84 440.75 219.47 440.75C182.1 440.75 151.76 422.96 151.76 401.04C151.76 379.13 182.1 361.33 219.47 361.33C256.84 361.33 287.18 379.13 287.18 401.04Z" id="a2ph6266nQ"></path><path d="M151.76 428C151.76 435.4 130.15 441.4 103.53 441.4C76.91 441.4 55.3 435.4 55.3 428C55.3 420.61 76.91 414.6 103.53 414.6C130.15 414.6 151.76 420.61 151.76 428Z" id="b3eDDhXQk"></path><path d="M94.34 430.23L149.15 430.23L149.15 441.65L94.34 441.65L94.34 430.23Z" id="dkGIxwGX"></path></defs><g><g><g><use xlink:href="#e34Da19gs" opacity="1" fill="#000000" fill-opacity="0"></use><g><use xlink:href="#e34Da19gs" opacity="1" fill-opacity="0" stroke="#ea4141" stroke-width="44" stroke-opacity="1"></use></g></g><g><use xlink:href="#a5lK34Ihsw" opacity="1" fill="#000000" fill-opacity="0"></use><g><use xlink:href="#a5lK34Ihsw" opacity="1" fill-opacity="0" stroke="#ea4141" stroke-width="44" stroke-opacity="1"></use></g></g><g><use xlink:href="#b6C6969T2n" opacity="1" fill="#ea4141" fill-opacity="1"></use><g><use xlink:href="#b6C6969T2n" opacity="1" fill-opacity="0" stroke="#000000" stroke-width="1" stroke-opacity="0"></use></g></g><g><use xlink:href="#c22BDkEgVa" opacity="1" fill="#ea4141" fill-opacity="1"></use><g><use xlink:href="#c22BDkEgVa" opacity="1" fill-opacity="0" stroke="#000000" stroke-width="1" stroke-opacity="0"></use></g></g><g><use xlink:href="#b4v1A1vj0" opacity="1" fill="#031d33" fill-opacity="1"></use><g><use xlink:href="#b4v1A1vj0" opacity="1" fill-opacity="0" stroke="#000000" stroke-width="1" stroke-opacity="0"></use></g></g><g><use xlink:href="#bKW8HsgxW" opacity="1" fill="#2d3333" fill-opacity="1"></use></g><g><use xlink:href="#b4jTv7tq0x" opacity="1" fill="#2d3333" fill-opacity="1"></use></g><g><use xlink:href="#a2QDoJ0GzP" opacity="1" fill="#2d3333" fill-opacity="1"></use></g><g><use xlink:href="#i3sGNm613j" opacity="1" fill="#2d3333" fill-opacity="1"></use></g><g><use xlink:href="#c2mtBECS3" opacity="1" fill="#2d3333" fill-opacity="1"></use></g><g><use xlink:href="#a1GZ7xv8cz" opacity="1" fill="#4eccc0" fill-opacity="1"></use></g><g><use xlink:href="#ebISb8foy" opacity="1" fill="#4eccc0" fill-opacity="1"></use></g><g><use xlink:href="#amo4o9c5d" opacity="1" fill="#4eccc0" fill-opacity="1"></use></g><g><use xlink:href="#gS3VYDNr4" opacity="1" fill="#4eccc0" fill-opacity="1"></use></g><g><use xlink:href="#c32R8er6E" opacity="1" fill="#2d3333" fill-opacity="1"></use></g><g><use xlink:href="#a2ph6266nQ" opacity="1" fill="#4eccc0" fill-opacity="1"></use></g><g><use xlink:href="#b3eDDhXQk" opacity="1" fill="#2d3333" fill-opacity="1"></use></g><g><use xlink:href="#dkGIxwGX" opacity="1" fill="#2d3333" fill-opacity="1"></use><g><use xlink:href="#dkGIxwGX" opacity="1" fill-opacity="0" stroke="#4b6776" stroke-width="1" stroke-opacity="1"></use></g></g></g></g></svg>