<?xml version="1.0" encoding="UTF-8" standalone="no"?>
<!DOCTYPE svg PUBLIC "-//W3C//DTD SVG 1.1//EN" "http://www.w3.org/Graphics/SVG/1.1/DTD/svg11.dtd">
<svg version="1.1" xmlns="http://www.w3.org/2000/svg" xmlns:xlink="http://www.w3.org/1999/xlink" preserveAspectRatio="xMidYMid meet" viewBox="0 0 640 640" width="640" height="640"><defs><path d="M148 -156.13L332.79 -269.96L415.5 -323.36" id="e34Da19gs"></path><path d="M569.25 -219.39L395.5 -317.4" id="a5lK34Ihsw"></path><path d="M252 -129.02L-23 -129.02L114.5 -219.39L252 -129.02Z" id="b6C6969T2n"></path><path d="M700 -246.33L700 -168.38L636.5 -129.4L573 -168.38L573 -246.33L636.5 -285.31L700 -246.33Z" id="c22BDkEgVa"></path><path d="M673 -129.02L148 -129.02L410.5 -293.82L673 -129.02Z" id="b4v1A1vj0"></path><path d="M538.92 303.22C538.92 366.44 489.62 417.77 428.89 417.77C368.17 417.77 318.87 366.44 318.87 303.22C318.87 239.99 368.17 188.66 428.89 188.66C489.62 188.66 538.92 239.99 538.92 303.22Z" id="c1OdmLuDkU"></path><path d="M376.12 348.5C376.12 389.67 338.54 423.09 292.26 423.09C245.97 423.09 208.39 389.67 208.39 348.5C208.39 307.33 245.97 273.91 292.26 273.91C338.54 273.91 376.12 307.33 376.12 348.5Z" id="i2VNTz0NQ"></path><path d="M630.5 362.34C630.5 401.96 600.16 434.12 562.79 434.12C525.42 434.12 495.08 401.96 495.08 362.34C495.08 322.72 525.42 290.55 562.79 290.55C600.16 290.55 630.5 322.72 630.5 362.34Z" id="i5B4DWm2d"></path><path d="M121.75 380.63L630.5 380.63L630.5 440.75L121.75 440.75L121.75 380.63Z" id="a2ds03X2b"></path><path d="M264.83 384.72C264.83 414.91 234.49 439.42 197.12 439.42C159.75 439.42 129.41 414.91 129.41 384.72C129.41 354.53 159.75 330.02 197.12 330.02C234.49 330.02 264.83 354.53 264.83 384.72Z" id="a4V0bthSF"></path><path d="M521.6 330.02C521.6 381.39 481.51 423.09 432.13 423.09C382.74 423.09 342.65 381.39 342.65 330.02C342.65 278.65 382.74 236.94 432.13 236.94C481.51 236.94 521.6 278.65 521.6 330.02Z" id="c6noTVWs3"></path><path d="M396.02 367.75C396.02 401 361.45 428 318.87 428C276.28 428 241.71 401 241.71 367.75C241.71 334.49 276.28 307.49 318.87 307.49C361.45 307.49 396.02 334.49 396.02 367.75Z" id="d37p6KcvLd"></path><path d="M630.5 383.83C630.5 412.59 600.16 435.94 562.79 435.94C525.42 435.94 495.08 412.59 495.08 383.83C495.08 355.06 525.42 331.71 562.79 331.71C600.16 331.71 630.5 355.06 630.5 383.83Z" id="amo4o9c5d"></path><path d="M212.74 383.83L630.5 383.83L630.5 440.75L212.74 440.75L212.74 383.83Z" id="gS3VYDNr4"></path><path d="M164.97 410.69C164.97 427.28 146.95 440.75 124.74 440.75C102.54 440.75 84.51 427.28 84.51 410.69C84.51 394.1 102.54 380.63 124.74 380.63C146.95 380.63 164.97 394.1 164.97 410.69Z" id="a1JblJMvSB"></path><path d="M287.18 401.04C287.18 422.96 256.84 440.75 219.47 440.75C182.1 440.75 151.76 422.96 151.76 401.04C151.76 379.13 182.1 361.33 219.47 361.33C256.84 361.33 287.18 379.13 287.18 401.04Z" id="a2ph6266nQ"></path><path d="M151.76 428C151.76 435.4 130.15 441.4 103.53 441.4C76.91 441.4 55.3 435.4 55.3 428C55.3 420.61 76.91 414.6 103.53 414.6C130.15 414.6 151.76 420.61 151.76 428Z" id="a2nFTAefBI"></path><path d="M94.34 429.34L149.15 429.34L149.15 440.75L94.34 440.75L94.34 429.34Z" id="b7wFQW4nkG"></path></defs><g><g><g><use xlink:href="#e34Da19gs" opacity="1" fill="#000000" fill-opacity="0"></use><g><use xlink:href="#e34Da19gs" opacity="1" fill-opacity="0" stroke="#ea4141" stroke-width="44" stroke-opacity="1"></use></g></g><g><use xlink:href="#a5lK34Ihsw" opacity="1" fill="#000000" fill-opacity="0"></use><g><use xlink:href="#a5lK34Ihsw" opacity="1" fill-opacity="0" stroke="#ea4141" stroke-width="44" stroke-opacity="1"></use></g></g><g><use xlink:href="#b6C6969T2n" opacity="1" fill="#ea4141" fill-opacity="1"></use><g><use xlink:href="#b6C6969T2n" opacity="1" fill-opacity="0" stroke="#000000" stroke-width="1" stroke-opacity="0"></use></g></g><g><use xlink:href="#c22BDkEgVa" opacity="1" fill="#ea4141" fill-opacity="1"></use><g><use xlink:href="#c22BDkEgVa" opacity="1" fill-opacity="0" stroke="#000000" stroke-width="1" stroke-opacity="0"></use></g></g><g><use xlink:href="#b4v1A1vj0" opacity="1" fill="#031d33" fill-opacity="1"></use><g><use xlink:href="#b4v1A1vj0" opacity="1" fill-opacity="0" stroke="#000000" stroke-width="1" stroke-opacity="0"></use></g></g><g><use xlink:href="#c1OdmLuDkU" opacity="1" fill="#606e6d" fill-opacity="1"></use></g><g><use xlink:href="#i2VNTz0NQ" opacity="1" fill="#606e6d" fill-opacity="1"></use></g><g><use xlink:href="#i5B4DWm2d" opacity="1" fill="#606e6d" fill-opacity="1"></use></g><g><use xlink:href="#a2ds03X2b" opacity="1" fill="#606e6d" fill-opacity="1"></use></g><g><use xlink:href="#a4V0bthSF" opacity="1" fill="#606e6d" fill-opacity="1"></use></g><g><use xlink:href="#c6noTVWs3" opacity="1" fill="#4eccc0" fill-opacity="1"></use></g><g><use xlink:href="#d37p6KcvLd" opacity="1" fill="#4eccc0" fill-opacity="1"></use></g><g><use xlink:href="#amo4o9c5d" opacity="1" fill="#4eccc0" fill-opacity="1"></use></g><g><use xlink:href="#gS3VYDNr4" opacity="1" fill="#4eccc0" fill-opacity="1"></use></g><g><use xlink:href="#a1JblJMvSB" opacity="1" fill="#606e6d" fill-opacity="1"></use></g><g><use xlink:href="#a2ph6266nQ" opacity="1" fill="#4eccc0" fill-opacity="1"></use></g><g><use xlink:href="#a2nFTAefBI" opacity="1" fill="#606e6d" fill-opacity="1"></use></g><g><use xlink:href="#b7wFQW4nkG" opacity="1" fill="#606e6d" fill-opacity="1"></use></g></g></g></svg>