<?xml version="1.0" encoding="UTF-8" standalone="no"?>
<!DOCTYPE svg PUBLIC "-//W3C//DTD SVG 1.1//EN" "http://www.w3.org/Graphics/SVG/1.1/DTD/svg11.dtd">
<svg version="1.1" xmlns="http://www.w3.org/2000/svg" xmlns:xlink="http://www.w3.org/1999/xlink" preserveAspectRatio="xMidYMid meet" viewBox="0 0 630 280" width="630" height="280"><defs><path d="M148 -156.13L332.79 -269.96L415.5 -323.36" id="e34Da19gs"></path><path d="M569.25 -219.39L395.5 -317.4" id="a5lK34Ihsw"></path><path d="M252 -129.02L-23 -129.02L114.5 -219.39L252 -129.02Z" id="b6C6969T2n"></path><path d="M700 -246.33L700 -168.38L636.5 -129.4L573 -168.38L573 -246.33L636.5 -285.31L700 -246.33Z" id="c22BDkEgVa"></path><path d="M673 -129.02L148 -129.02L410.5 -293.82L673 -129.02Z" id="b4v1A1vj0"></path><path d="M529.7 129.93C529.7 199.76 475.7 256.45 409.19 256.45C342.68 256.45 288.68 199.76 288.68 129.93C288.68 60.11 342.68 3.42 409.19 3.42C475.7 3.42 529.7 60.11 529.7 129.93Z" id="a1dFw2KEgu"></path><path d="M351.39 179.1C351.39 224.57 310.23 261.48 259.53 261.48C208.84 261.48 167.68 224.57 167.68 179.1C167.68 133.63 208.84 96.72 259.53 96.72C310.23 96.72 351.39 133.63 351.39 179.1Z" id="a16Oto2aJb"></path><path d="M72.78 214.59L630 214.59L630 280.99L72.78 280.99L72.78 214.59Z" id="arVil1qG"></path><path d="M630 193.99C630 237.75 596.77 273.27 555.84 273.27C514.91 273.27 481.68 237.75 481.68 193.99C481.68 150.23 514.91 114.71 555.84 114.71C596.77 114.71 630 150.23 630 193.99Z" id="b15D67V24T"></path><path d="M229.49 219.1C229.49 252.44 196.26 279.51 155.33 279.51C114.4 279.51 81.17 252.44 81.17 219.1C81.17 185.76 114.4 158.69 155.33 158.69C196.26 158.69 229.49 185.76 229.49 219.1Z" id="b3nQUTC5pL"></path><path d="M510.06 158.69C510.06 215.42 466.14 261.48 412.05 261.48C357.96 261.48 314.05 215.42 314.05 158.69C314.05 101.95 357.96 55.9 412.05 55.9C466.14 55.9 510.06 101.95 510.06 158.69Z" id="b2Mk2MhTkj"></path><path d="M373.18 200.36C373.18 237.09 335.32 266.9 288.68 266.9C242.04 266.9 204.17 237.09 204.17 200.36C204.17 163.63 242.04 133.81 288.68 133.81C335.32 133.81 373.18 163.63 373.18 200.36Z" id="c3L3811JHm"></path><path d="M630 218.11C630 249.88 596.77 275.67 555.84 275.67C514.91 275.67 481.68 249.88 481.68 218.11C481.68 186.35 514.91 160.56 555.84 160.56C596.77 160.56 630 186.35 630 218.11Z" id="d1vdhN74ve"></path><path d="M172.44 218.83L630 218.83L630 281.7L172.44 281.7L172.44 218.83Z" id="buH00Pvoi"></path><path d="M120.13 246.52C120.13 265.54 100.38 280.99 76.06 280.99C51.75 280.99 32 265.54 32 246.52C32 227.5 51.75 212.06 76.06 212.06C100.38 212.06 120.13 227.5 120.13 246.52Z" id="c2LS37wtnB"></path><path d="M253.98 237.85C253.98 262.05 220.75 281.7 179.82 281.7C138.89 281.7 105.66 262.05 105.66 237.85C105.66 213.64 138.89 193.99 179.82 193.99C220.75 193.99 253.98 213.64 253.98 237.85Z" id="a132WR5Ntk"></path><path d="M105.66 266.9C105.66 275.07 81.99 281.7 52.83 281.7C23.67 281.7 0 275.07 0 266.9C0 258.73 23.67 252.1 52.83 252.1C81.99 252.1 105.66 258.73 105.66 266.9Z" id="d1Bk9KUwd"></path><path d="M42.76 269.37L102.8 269.37L102.8 280.99L42.76 280.99L42.76 269.37Z" id="b3Ztn6vnIW"></path></defs><g><g><g><use xlink:href="#e34Da19gs" opacity="1" fill="#000000" fill-opacity="0"></use><g><use xlink:href="#e34Da19gs" opacity="1" fill-opacity="0" stroke="#ea4141" stroke-width="44" stroke-opacity="1"></use></g></g><g><use xlink:href="#a5lK34Ihsw" opacity="1" fill="#000000" fill-opacity="0"></use><g><use xlink:href="#a5lK34Ihsw" opacity="1" fill-opacity="0" stroke="#ea4141" stroke-width="44" stroke-opacity="1"></use></g></g><g><use xlink:href="#b6C6969T2n" opacity="1" fill="#ea4141" fill-opacity="1"></use><g><use xlink:href="#b6C6969T2n" opacity="1" fill-opacity="0" stroke="#000000" stroke-width="1" stroke-opacity="0"></use></g></g><g><use xlink:href="#c22BDkEgVa" opacity="1" fill="#ea4141" fill-opacity="1"></use><g><use xlink:href="#c22BDkEgVa" opacity="1" fill-opacity="0" stroke="#000000" stroke-width="1" stroke-opacity="0"></use></g></g><g><use xlink:href="#b4v1A1vj0" opacity="1" fill="#031d33" fill-opacity="1"></use><g><use xlink:href="#b4v1A1vj0" opacity="1" fill-opacity="0" stroke="#000000" stroke-width="1" stroke-opacity="0"></use></g></g><g><use xlink:href="#a1dFw2KEgu" opacity="1" fill="#2d3333" fill-opacity="1"></use></g><g><use xlink:href="#a16Oto2aJb" opacity="1" fill="#2d3333" fill-opacity="1"></use></g><g><use xlink:href="#arVil1qG" opacity="1" fill="#2d3333" fill-opacity="1"></use></g><g><use xlink:href="#b15D67V24T" opacity="1" fill="#2d3333" fill-opacity="1"></use></g><g><use xlink:href="#b3nQUTC5pL" opacity="1" fill="#2d3333" fill-opacity="1"></use></g><g><use xlink:href="#b2Mk2MhTkj" opacity="1" fill="#496dff" fill-opacity="1"></use></g><g><use xlink:href="#c3L3811JHm" opacity="1" fill="#496dff" fill-opacity="1"></use></g><g><use xlink:href="#d1vdhN74ve" opacity="1" fill="#496dff" fill-opacity="1"></use></g><g><use xlink:href="#buH00Pvoi" opacity="1" fill="#496dff" fill-opacity="1"></use></g><g><use xlink:href="#c2LS37wtnB" opacity="1" fill="#2d3333" fill-opacity="1"></use></g><g><use xlink:href="#a132WR5Ntk" opacity="1" fill="#496dff" fill-opacity="1"></use></g><g><use xlink:href="#d1Bk9KUwd" opacity="1" fill="#2d3333" fill-opacity="1"></use></g><g><use xlink:href="#b3Ztn6vnIW" opacity="1" fill="#2d3333" fill-opacity="1"></use></g></g></g></svg>