<?xml version="1.0" encoding="UTF-8" standalone="no"?>
<!DOCTYPE svg PUBLIC "-//W3C//DTD SVG 1.1//EN" "http://www.w3.org/Graphics/SVG/1.1/DTD/svg11.dtd">
<svg version="1.1" xmlns="http://www.w3.org/2000/svg" xmlns:xlink="http://www.w3.org/1999/xlink" preserveAspectRatio="xMidYMid meet" viewBox="0 0 640 640" width="640" height="640"><defs><path d="M148 -156.13L332.79 -269.96L415.5 -323.36" id="e34Da19gs"></path><path d="M569.25 -219.39L395.5 -317.4" id="a5lK34Ihsw"></path><path d="M252 -129.02L-23 -129.02L114.5 -219.39L252 -129.02Z" id="b6C6969T2n"></path><path d="M700 -246.33L700 -168.38L636.5 -129.4L573 -168.38L573 -246.33L636.5 -285.31L700 -246.33Z" id="c22BDkEgVa"></path><path d="M673 -129.02L148 -129.02L410.5 -293.82L673 -129.02Z" id="b4v1A1vj0"></path><path d="M539.73 301.49C539.73 365.86 484.71 418.12 416.94 418.12C349.17 418.12 294.15 365.86 294.15 301.49C294.15 237.11 349.17 184.85 416.94 184.85C484.71 184.85 539.73 237.11 539.73 301.49Z" id="aRsP2TCjq"></path><path d="M358.05 346.81C358.05 388.73 316.11 422.76 264.45 422.76C212.79 422.76 170.85 388.73 170.85 346.81C170.85 304.9 212.79 270.87 264.45 270.87C316.11 270.87 358.05 304.9 358.05 346.81Z" id="gLmQj0CD"></path><path d="M74.16 379.53L641.93 379.53L641.93 440.74L74.16 440.74L74.16 379.53Z" id="c49htPXf92"></path><path d="M641.93 360.54C641.93 400.88 608.08 433.63 566.37 433.63C524.67 433.63 490.81 400.88 490.81 360.54C490.81 320.2 524.67 287.45 566.37 287.45C608.08 287.45 641.93 320.2 641.93 360.54Z" id="bofdc43jH"></path><path d="M233.84 383.69C233.84 414.43 199.98 439.38 158.28 439.38C116.57 439.38 82.71 414.43 82.71 383.69C82.71 352.95 116.57 327.99 158.28 327.99C199.98 327.99 233.84 352.95 233.84 383.69Z" id="a1BXcbQACr"></path><path d="M520.41 327.99C520.41 380.3 475.66 422.76 420.55 422.76C365.43 422.76 320.69 380.3 320.69 327.99C320.69 275.69 365.43 233.23 420.55 233.23C475.66 233.23 520.41 275.69 520.41 327.99Z" id="d16MEpRp2R"></path><path d="M380.25 366.41C380.25 400.27 341.67 427.76 294.15 427.76C246.62 427.76 208.04 400.27 208.04 366.41C208.04 332.55 246.62 305.06 294.15 305.06C341.67 305.06 380.25 332.55 380.25 366.41Z" id="a18glLwAp1"></path><path d="M641.93 382.78C641.93 412.06 608.08 435.84 566.37 435.84C524.67 435.84 490.81 412.06 490.81 382.78C490.81 353.49 524.67 329.72 566.37 329.72C608.08 329.72 641.93 353.49 641.93 382.78Z" id="axNneJtXt"></path><path d="M175.71 382.78L641.93 382.78L641.93 440.74L175.71 440.74L175.71 382.78Z" id="e3eFhfNBay"></path><path d="M122.4 408.97C122.4 426.51 102.28 440.74 77.51 440.74C52.73 440.74 32.61 426.51 32.61 408.97C32.61 391.44 52.73 377.2 77.51 377.2C102.28 377.2 122.4 391.44 122.4 408.97Z" id="fXdufwxYZ"></path><path d="M258.79 400.97C258.79 423.29 224.93 441.4 183.22 441.4C141.52 441.4 107.66 423.29 107.66 400.97C107.66 378.66 141.52 360.54 183.22 360.54C224.93 360.54 258.79 378.66 258.79 400.97Z" id="b1myt6uKm7"></path><path d="M107.66 427.76C107.66 435.29 83.54 441.4 53.83 441.4C24.12 441.4 0 435.29 0 427.76C0 420.23 24.12 414.11 53.83 414.11C83.54 414.11 107.66 420.23 107.66 427.76Z" id="d2aLvmCiJC"></path><path d="M43.57 430.03L104.75 430.03L104.75 440.74L43.57 440.74L43.57 430.03Z" id="b2QBtlgKnF"></path></defs><g><g><g><use xlink:href="#e34Da19gs" opacity="1" fill="#000000" fill-opacity="0"></use><g><use xlink:href="#e34Da19gs" opacity="1" fill-opacity="0" stroke="#ea4141" stroke-width="44" stroke-opacity="1"></use></g></g><g><use xlink:href="#a5lK34Ihsw" opacity="1" fill="#000000" fill-opacity="0"></use><g><use xlink:href="#a5lK34Ihsw" opacity="1" fill-opacity="0" stroke="#ea4141" stroke-width="44" stroke-opacity="1"></use></g></g><g><use xlink:href="#b6C6969T2n" opacity="1" fill="#ea4141" fill-opacity="1"></use><g><use xlink:href="#b6C6969T2n" opacity="1" fill-opacity="0" stroke="#000000" stroke-width="1" stroke-opacity="0"></use></g></g><g><use xlink:href="#c22BDkEgVa" opacity="1" fill="#ea4141" fill-opacity="1"></use><g><use xlink:href="#c22BDkEgVa" opacity="1" fill-opacity="0" stroke="#000000" stroke-width="1" stroke-opacity="0"></use></g></g><g><use xlink:href="#b4v1A1vj0" opacity="1" fill="#031d33" fill-opacity="1"></use><g><use xlink:href="#b4v1A1vj0" opacity="1" fill-opacity="0" stroke="#000000" stroke-width="1" stroke-opacity="0"></use></g></g><g><use xlink:href="#aRsP2TCjq" opacity="1" fill="#2d3333" fill-opacity="1"></use></g><g><use xlink:href="#gLmQj0CD" opacity="1" fill="#2d3333" fill-opacity="1"></use></g><g><use xlink:href="#c49htPXf92" opacity="1" fill="#2d3333" fill-opacity="1"></use></g><g><use xlink:href="#bofdc43jH" opacity="1" fill="#2d3333" fill-opacity="1"></use></g><g><use xlink:href="#a1BXcbQACr" opacity="1" fill="#2d3333" fill-opacity="1"></use></g><g><use xlink:href="#d16MEpRp2R" opacity="1" fill="#00ff71" fill-opacity="1"></use></g><g><use xlink:href="#a18glLwAp1" opacity="1" fill="#00ff71" fill-opacity="1"></use></g><g><use xlink:href="#axNneJtXt" opacity="1" fill="#00ff71" fill-opacity="1"></use></g><g><use xlink:href="#e3eFhfNBay" opacity="1" fill="#00ff71" fill-opacity="1"></use></g><g><use xlink:href="#fXdufwxYZ" opacity="1" fill="#2d3333" fill-opacity="1"></use></g><g><use xlink:href="#b1myt6uKm7" opacity="1" fill="#00ff71" fill-opacity="1"></use></g><g><use xlink:href="#d2aLvmCiJC" opacity="1" fill="#2d3333" fill-opacity="1"></use></g><g><use xlink:href="#b2QBtlgKnF" opacity="1" fill="#2d3333" fill-opacity="1"></use></g></g></g></svg>