<?xml version="1.0" standalone="no"?>
<!DOCTYPE svg PUBLIC "-//W3C//DTD SVG 20010904//EN"
 "http://www.w3.org/TR/2001/REC-SVG-20010904/DTD/svg10.dtd">
<svg version="1.0" xmlns="http://www.w3.org/2000/svg"
 width="680.000000pt" height="472.000000pt" viewBox="0 0 680.000000 472.000000"
 preserveAspectRatio="xMidYMid meet">

<g transform="translate(0.000000,472.000000) scale(0.100000,-0.100000)"
fill="#000000" stroke="none">
<path d="M3068 3283 c-33 -4 -38 -8 -38 -29 0 -13 -4 -24 -10 -24 -5 0 -10 -9
-10 -19 0 -10 -7 -21 -15 -25 -13 -4 -15 -40 -15 -231 l0 -226 -22 8 c-13 4
-45 8 -73 8 l-50 0 -5 -205 -5 -205 -7 235 c-8 286 -11 341 -20 360 -9 21 -31
235 -29 287 2 39 0 42 -34 53 -26 9 -44 9 -69 0 -38 -12 -37 -7 -56 -202 -5
-54 -14 -107 -20 -117 -5 -11 -10 -41 -10 -68 0 -26 -7 -61 -15 -77 -11 -20
-15 -60 -15 -141 0 -61 -3 -153 -6 -203 -7 -91 -7 -92 -33 -92 l-26 0 3 281
c2 194 -1 285 -8 295 -6 7 -23 14 -38 16 -21 2 -28 10 -32 33 -6 37 -55 64
-125 67 l-50 3 3 -34 c2 -20 0 -31 -6 -27 -6 3 -17 4 -25 0 -22 -8 -27 -90
-28 -468 0 -186 -3 -345 -6 -352 -3 -8 -13 -14 -23 -14 -26 0 -30 36 -30 294
0 219 -1 232 -20 249 -11 9 -20 23 -20 32 0 24 -34 35 -108 35 -78 0 -97 -12
-108 -71 -4 -19 -14 -44 -22 -57 -11 -17 -15 -63 -15 -207 -1 -102 -3 -185 -6
-185 -3 0 -31 18 -62 40 -72 50 -94 51 -116 4 -16 -32 -21 -35 -46 -30 -16 3
-38 6 -48 6 -16 0 -19 8 -19 48 -1 120 -94 216 -210 216 -132 0 -222 -103
-212 -241 2 -36 10 -67 18 -74 8 -6 14 -17 14 -23 -1 -6 -44 -38 -96 -71 l-96
-60 -128 -5 c-130 -5 -153 -11 -132 -32 7 -7 12 -15 12 -19 0 -9 -151 1 -165
11 -5 4 -22 10 -37 14 -16 3 -28 13 -28 20 0 16 -55 27 -68 14 -5 -5 -20 -4
-35 1 -25 10 -27 15 -27 66 0 30 -4 55 -10 55 -6 0 -10 -27 -10 -60 l0 -60
-40 0 c-29 0 -40 -4 -40 -15 0 -8 -9 -15 -20 -15 -11 0 -24 -8 -27 -17 -6 -15
-8 -14 -14 7 -7 24 -7 24 -8 3 -1 -23 -12 -27 -58 -23 -13 1 -23 -3 -23 -9 0
-6 5 -11 10 -11 6 0 14 -9 18 -21 7 -18 18 -21 95 -24 76 -3 87 -1 87 13 1 15
2 15 11 0 13 -23 29 -23 29 0 1 16 1 16 11 -1 14 -24 96 -24 102 1 4 16 5 16
6 0 1 -23 21 -24 21 -1 0 15 1 15 14 -2 13 -18 13 -18 24 1 11 18 11 18 12 1
0 -16 8 -18 55 -15 41 2 55 7 55 18 1 12 3 11 11 -2 5 -10 21 -18 35 -18 17 0
28 -7 31 -20 4 -16 14 -20 48 -20 47 0 55 11 55 83 0 25 4 36 11 31 6 -3 9
-28 7 -58 -3 -49 -2 -51 25 -54 27 -3 27 -2 27 52 0 31 5 56 10 56 6 0 10 -25
10 -55 l0 -55 110 0 110 0 0 54 c0 30 5 58 10 61 11 7 11 8 14 -60 2 -35 7
-50 17 -50 10 0 15 15 17 53 2 28 7 52 12 52 5 0 10 -24 12 -52 2 -39 7 -53
18 -53 11 0 16 16 20 60 7 68 21 55 17 -15 l-2 -45 37 -3 37 -3 3 58 c4 69 23
74 23 6 0 -27 3 -50 6 -53 4 -3 57 -4 118 -2 l111 3 0 55 c0 30 5 54 10 54 6
0 10 -25 10 -55 0 -52 1 -55 25 -55 23 0 25 3 25 49 0 28 5 53 10 56 6 4 10
-15 10 -49 0 -49 2 -56 20 -56 17 0 20 7 20 50 0 28 4 50 9 50 5 0 8 -22 8
-48 l-2 -49 1304 -6 c717 -4 1731 -7 2253 -7 l948 0 -1 48 c0 26 -4 84 -7 130
-4 45 -6 82 -4 82 9 0 252 -135 252 -140 0 -3 -20 -18 -44 -35 -24 -16 -42
-33 -40 -36 5 -8 272 -12 285 -4 13 9 -66 65 -108 77 -19 5 -79 37 -135 71
-86 52 -111 74 -162 140 -49 62 -66 77 -88 77 -49 0 -270 87 -483 189 -115 56
-222 101 -237 101 -15 0 -80 -30 -147 -69 -144 -82 -309 -141 -398 -141 -44 0
-73 7 -122 30 -36 17 -74 30 -85 28 -12 -2 -36 -26 -57 -58 -36 -54 -57 -67
-111 -69 l-26 -1 -4 115 c-2 67 -8 119 -14 123 -5 4 -15 39 -21 79 -7 45 -19
82 -32 99 -12 15 -21 33 -21 40 0 8 -4 14 -10 14 -5 0 -10 -5 -10 -10 0 -6
-13 -28 -29 -50 -21 -29 -31 -57 -36 -103 -4 -34 -12 -68 -19 -76 -7 -9 -12
-71 -14 -160 l-4 -146 -114 0 -114 0 0 358 0 357 -25 0 c-24 0 -24 1 -27 96
-3 91 -5 98 -29 116 -24 18 -34 19 -175 8 -231 -17 -214 -11 -214 -75 l0 -55
-69 0 -68 0 -7 -31 c-3 -17 -6 -193 -6 -390 0 -198 -3 -359 -7 -359 -5 0 -7
152 -5 338 l4 339 -35 16 c-37 18 -66 21 -115 11 -31 -6 -31 -7 -35 -83 -2
-42 -3 19 -2 134 l3 211 -32 22 c-32 22 -75 26 -178 15z m129 -105 c-2 -13 -4
-3 -4 22 0 25 2 35 4 23 2 -13 2 -33 0 -45z m-27 -393 c-1 -291 -4 -405 -12
-405 -8 0 -9 70 -5 257 4 141 7 323 7 405 0 81 2 148 5 148 3 0 5 -182 5 -405z
m-141 323 c-1 -74 -17 -92 -18 -20 -1 35 3 62 9 62 6 0 10 -19 9 -42z m920 32
c-25 -4 -99 -10 -165 -13 l-119 -5 130 12 c72 7 146 13 165 13 30 1 29 0 -11
-7z m41 -70 c0 -6 -38 -10 -94 -10 -51 0 -115 -3 -142 -6 -27 -4 -45 -3 -41 2
4 5 61 11 125 15 64 3 125 6 135 7 9 1 17 -2 17 -8z m-960 -157 c-11 -43 -11
-60 0 -92 10 -31 10 -46 1 -68 -9 -22 -8 -38 3 -77 11 -35 12 -55 5 -68 -23
-43 -29 1 -29 205 1 199 2 210 17 183 13 -25 14 -37 3 -83z m-730 -148 c0
-162 -4 -245 -10 -245 -7 0 -10 76 -10 224 1 203 5 266 16 266 2 0 4 -110 4
-245z m1689 231 c-2 -2 -51 -6 -109 -9 -65 -4 -97 -3 -85 3 19 8 203 14 194 6z
m-722 -378 c-2 -35 -3 -7 -3 62 0 69 1 97 3 63 2 -35 2 -91 0 -125z m-1307 81
c0 -54 -14 -49 -18 7 -1 28 2 43 8 39 5 -3 10 -24 10 -46z m1237 -196 c-1 -43
-3 -10 -3 72 0 83 2 118 3 78 2 -40 2 -107 0 -150z m-1242 97 c0 -27 -3 -50
-7 -50 -5 0 -8 23 -8 50 0 28 4 50 8 50 4 0 8 -22 7 -50z m2442 18 c-3 -7 -5
-2 -5 12 0 14 2 19 5 13 2 -7 2 -19 0 -25z m20 10 c-3 -8 -6 -5 -6 6 -1 11 2
17 5 13 3 -3 4 -12 1 -19z m50 -10 c-3 -7 -5 -2 -5 12 0 14 2 19 5 13 2 -7 2
-19 0 -25z m1033 -68 c0 -33 -3 -40 -20 -40 -17 0 -20 7 -20 40 0 33 3 40 20
40 17 0 20 -7 20 -40z m-1750 13 c0 -10 -27 -13 -100 -13 -55 0 -100 4 -100 9
0 12 47 18 132 17 47 -1 68 -5 68 -13z m1685 -100 c-5 -49 -10 -63 -23 -63 -9
0 -80 -7 -157 -15 -77 -8 -220 -18 -317 -21 l-178 -7 0 36 c0 21 1 37 3 37 1
0 24 -11 51 -25 39 -20 64 -25 120 -25 101 0 288 65 411 144 l90 57 3 -28 c2
-15 1 -56 -3 -90z m606 -127 c100 -31 117 -39 121 -59 8 -43 -1 -44 -100 -10
-120 42 -327 97 -449 119 l-93 17 0 89 0 90 203 -105 c140 -72 238 -115 318
-141z m-4089 104 c0 -40 -3 -74 -6 -77 -3 -4 -6 31 -6 77 0 46 3 81 6 77 4 -3
6 -38 6 -77z m-622 43 c21 5 21 4 0 -73 -7 -25 -7 -24 -22 11 -9 20 -19 47
-23 60 -7 21 -6 22 9 10 9 -7 25 -11 36 -8z m81 -6 c-16 -16 -13 -35 6 -39 12
-2 4 -11 -25 -31 -23 -15 -42 -26 -42 -23 0 2 11 29 25 60 15 34 30 54 36 50
8 -4 8 -9 0 -17z m-143 -39 c12 -28 21 -53 19 -54 -1 -1 -22 9 -45 23 -36 22
-41 28 -28 35 11 6 15 16 11 29 -4 12 -2 19 7 19 8 0 24 -23 36 -52z m4232 2
c0 -33 -3 -40 -20 -40 -17 0 -20 7 -20 40 0 33 3 40 20 40 17 0 20 -7 20 -40z
m-757 -25 c-8 -22 -22 -18 -16 5 3 11 9 17 14 15 4 -3 6 -12 2 -20z m-3263 1
c0 -2 3 -12 7 -22 4 -11 3 -15 -4 -11 -6 4 -18 0 -26 -8 -9 -8 -33 -15 -54
-15 l-38 0 50 30 c48 28 65 35 65 26z m3222 -30 c-3 -23 -10 -36 -23 -39 -10
-3 -19 -4 -19 -2 0 5 41 75 44 75 1 0 0 -15 -2 -34z m-3481 -5 l51 -29 -51 -3
c-34 -3 -51 0 -51 8 0 6 -5 13 -12 15 -11 4 -5 38 7 38 3 0 29 -13 56 -29z
m3511 -23 c-7 -7 -12 -8 -12 -2 0 14 12 26 19 19 2 -3 -1 -11 -7 -17z m698
-113 c0 -64 -4 -115 -9 -115 -5 0 -16 6 -24 14 -9 9 -24 12 -37 9 -22 -6 -23
-5 -16 60 l8 67 -31 -6 c-28 -6 -31 -4 -31 20 0 14 -3 26 -8 26 -19 0 -157
-42 -184 -56 -28 -14 -32 -14 -52 4 -11 11 -45 30 -74 42 l-53 23 -40 -39
c-21 -21 -39 -44 -39 -51 0 -8 -13 -13 -36 -13 l-37 0 7 -70 c6 -61 5 -70 -9
-70 -15 0 -16 13 -13 114 1 63 7 118 11 123 8 7 380 27 590 31 l77 2 0 -115z
m60 80 c0 -24 -5 -35 -15 -35 -10 0 -15 11 -15 35 0 24 5 35 15 35 10 0 15
-11 15 -35z m175 10 c136 -23 299 -63 405 -98 l95 -32 3 -88 3 -88 -54 40
c-65 49 -123 76 -204 92 -57 12 -69 11 -170 -14 -59 -15 -130 -32 -158 -37
-27 -6 -57 -13 -66 -15 -13 -4 -15 7 -12 87 2 51 6 112 9 135 5 39 7 42 32 38
15 -3 68 -12 117 -20z m-4212 -15 c33 0 37 -3 37 -24 0 -14 -3 -27 -8 -30 -10
-6 -62 18 -92 44 l-25 22 25 -6 c14 -3 42 -6 63 -6z m3239 -25 c-4 -23 -8 -25
-62 -25 -32 0 -65 -3 -73 -6 -13 -5 -33 23 -23 33 5 6 150 30 157 27 4 -2 4
-15 1 -29z m35 -2 c-3 -10 -5 -4 -5 12 0 17 2 24 5 18 2 -7 2 -21 0 -30z
m-3497 -8 c-40 -34 -44 -35 -61 -19 -11 10 -19 25 -19 36 0 15 8 18 61 18 l61
0 -42 -35z m54 -29 c-12 -34 -21 -45 -42 -49 -39 -8 -50 9 -21 32 13 10 35 28
49 39 14 12 26 21 27 22 1 0 -5 -20 -13 -44z m109 19 c15 -13 27 -29 27 -35 0
-5 7 -10 15 -10 8 0 15 -4 15 -9 0 -12 -48 -42 -54 -33 -12 20 -43 112 -38
112 4 0 19 -12 35 -25z m4819 -15 c2 -28 0 -40 -9 -40 -8 0 -13 14 -13 40 0
22 4 40 9 40 5 0 11 -18 13 -40z m-4872 -11 c8 -30 8 -44 0 -54 -7 -8 -9 -19
-5 -25 3 -5 -2 -10 -14 -10 -11 0 -22 4 -25 8 -4 7 25 122 31 122 1 0 7 -18
13 -41z m4933 -27 l38 -53 -31 16 c-30 15 -50 49 -50 82 0 9 1 14 3 12 2 -2
20 -28 40 -57z m-787 -14 c-3 -29 -6 -61 -6 -70 0 -10 -4 -18 -10 -18 -6 0
-10 30 -10 70 0 58 3 70 16 70 14 0 16 -8 10 -52z m-3144 -85 l3 -98 90 -5
c71 -4 90 -8 90 -20 0 -12 -21 -16 -117 -18 l-118 -3 0 121 0 120 25 0 c24 0
24 -1 27 -97z m903 -5 c26 -46 56 -98 67 -115 l20 -33 -29 0 c-21 0 -33 7 -43
25 -13 23 -18 25 -92 25 -74 0 -79 -1 -90 -25 -7 -17 -19 -25 -35 -25 -24 0
-24 1 18 78 24 42 52 94 64 114 15 29 26 38 47 38 23 0 33 -12 73 -82z m2971
33 c6 -26 4 -33 -7 -29 -8 3 -15 21 -17 44 -4 47 14 36 24 -15z m-789 -88 c-3
-10 -5 -2 -5 17 0 19 2 27 5 18 2 -10 2 -26 0 -35z m283 1 c0 -15 -6 -24 -15
-24 -15 0 -21 40 -9 53 12 11 24 -3 24 -29z m230 0 c0 -19 -5 -25 -17 -22 -22
4 -30 38 -12 49 19 11 29 2 29 -27z m40 6 c0 -20 -5 -30 -15 -30 -15 0 -21 40
-8 53 14 15 23 6 23 -23z m240 -5 c0 -19 -4 -35 -10 -35 -5 0 -10 16 -10 35 0
19 5 35 10 35 6 0 10 -16 10 -35z m-3525 -31 l0 -39 -62 -3 -63 -3 0 45 0 45
43 3 c68 5 82 -3 82 -48z m2958 35 c9 7 12 2 14 -16 1 -19 -1 -22 -8 -12 -8
12 -10 12 -19 -1 -7 -11 -9 -6 -9 20 1 19 3 27 6 17 3 -12 8 -15 16 -8z m131
-28 c9 -11 8 -13 -4 -9 -8 2 -16 18 -17 34 -1 18 0 22 4 9 3 -11 10 -26 17
-34z m75 31 c11 -11 15 -11 22 0 6 9 9 4 9 -14 0 -36 -37 -40 -42 -5 -4 28
-21 25 -29 -5 -5 -21 -6 -20 -10 7 -4 26 -2 31 16 31 11 0 26 -6 34 -14z m171
-12 c0 -20 -5 -30 -15 -30 -10 0 -15 10 -15 30 0 20 5 30 15 30 10 0 15 -10
15 -30z m-3170 11 c0 -5 -20 -6 -45 -3 -37 4 -45 2 -45 -12 0 -12 10 -16 45
-16 41 0 45 -2 45 -24 0 -21 -5 -24 -45 -28 -47 -3 -65 -1 -65 10 0 4 20 6 45
4 36 -3 45 -1 45 12 0 12 -10 16 -45 16 -41 0 -45 2 -45 25 0 24 3 25 55 25
30 0 55 -4 55 -9z m566 -36 c23 -19 45 -35 48 -35 3 0 6 16 6 35 0 19 5 35 10
35 6 0 10 -22 10 -50 0 -31 -4 -50 -11 -50 -7 0 -32 16 -55 36 l-44 35 0 -35
c0 -20 -4 -36 -10 -36 -5 0 -10 23 -10 50 0 28 3 50 6 50 4 0 26 -16 50 -35z
m249 26 c3 -6 -17 -7 -50 -4 l-55 6 0 -42 0 -42 43 3 c45 3 53 19 15 30 -18 5
-15 6 15 7 37 1 42 -4 31 -33 -5 -12 -21 -16 -65 -16 l-59 0 0 43 c0 24 3 47
7 50 10 11 111 8 118 -2z m123 2 c-34 -3 -48 -8 -48 -19 0 -8 10 -14 25 -14
14 0 25 -4 25 -10 0 -5 -11 -10 -25 -10 -15 0 -25 -6 -25 -14 0 -11 14 -16 48
-19 46 -3 46 -3 -10 -5 l-58 -2 0 50 0 50 58 -2 c56 -2 56 -2 10 -5z m104 -35
c3 -43 3 -43 48 -49 l45 -6 -57 -1 -58 -2 0 50 c0 61 18 67 22 8z m189 33
c-49 -7 -70 -31 -27 -31 14 0 26 -4 26 -10 0 -5 -12 -10 -26 -10 -43 0 -22
-24 27 -31 44 -6 44 -6 -13 -7 l-58 -2 0 50 0 50 58 -2 c57 -1 57 -1 13 -7z
m199 0 c0 -5 -20 -6 -45 -3 -36 4 -45 2 -45 -11 0 -11 12 -17 43 -19 38 -3 42
-6 45 -30 3 -28 2 -28 -52 -28 -30 0 -57 4 -60 8 -2 4 16 8 42 7 60 0 72 19
14 23 -44 3 -59 18 -48 47 4 11 20 15 56 15 27 0 50 -4 50 -9z m1455 -21 c3
-5 2 -10 -4 -10 -5 0 -13 5 -16 10 -3 6 -2 10 4 10 5 0 13 -4 16 -10z m-130
-50 c-27 -12 -43 -12 -25 0 8 5 22 9 30 9 10 0 8 -3 -5 -9z m613 -28 c2 -24
-1 -32 -12 -32 -12 0 -16 10 -16 36 0 45 24 42 28 -4z"/>
<path d="M3142 2111 c-12 -21 -22 -41 -22 -45 0 -3 23 -6 50 -6 28 0 50 2 50
5 0 13 -41 85 -48 85 -5 0 -18 -17 -30 -39z"/>
<path d="M5691 2064 c0 -11 3 -14 6 -6 3 7 2 16 -1 19 -3 4 -6 -2 -5 -13z"/>
<path d="M5910 2065 c0 -8 5 -15 10 -15 6 0 10 7 10 15 0 8 -4 15 -10 15 -5 0
-10 -7 -10 -15z"/>
<path d="M5961 2064 c0 -11 3 -14 6 -6 3 7 2 16 -1 19 -3 4 -6 -2 -5 -13z"/>
<path d="M2590 2035 c0 -35 0 -35 45 -35 45 0 45 0 45 35 0 35 0 35 -45 35
-45 0 -45 0 -45 -35z"/>
<path d="M6012 2060 c0 -14 2 -19 5 -12 2 6 2 18 0 25 -3 6 -5 1 -5 -13z"/>
</g>
</svg>
